<svg xmlns="http://www.w3.org/2000/svg" width="515" height="521" viewBox="0 0 515 521">
<g>
<path d="M 399.00 361.87 C409.45,362.88 425.05,362.51 443.50,360.84 C451.42,360.12 457.71,359.12 458.92,358.54 L 462.07 359.56 L 457.14 367.77 C450.79,378.33 439.43,394.16 430.33,405.12 L 423.16 413.75 L 408.59 414.48 L 394.01 415.21 L 394.04 415.32 L 373.77 414.66 C343.23,413.67 322.97,410.89 299.03,404.39 C283.11,400.07 271.72,395.38 240.97,380.49 C205.70,363.42 193.88,358.29 176.11,352.35 C141.79,340.89 110.76,336.07 70.82,336.02 C55.35,336.00 49.24,336.61 48.17,338.43 C43.22,324.19 37.01,302.40 37.00,297.89 C37.00,295.41 37.39,295.21 44.25,294.14 C72.34,289.77 119.64,287.79 145.21,289.92 C185.67,293.30 205.57,297.79 250.45,313.70 L 274.39 322.18 L 277.29 320.80 C277.27,320.81 277.25,320.82 277.24,320.83 L 273.97 322.57 L 291.74 329.93 C328.33,345.09 332.82,346.81 346.19,350.81 C362.60,355.72 385.95,360.61 399.00,361.87 ZM 246.50 484.40 C198.48,479.58 161.00,464.98 125.50,437.29 C113.19,427.68 96.54,411.68 86.84,400.12 C79.59,391.49 64.90,370.12 56.83,356.89 L 59.88 356.40 C64.51,355.66 97.56,357.59 113.83,359.55 C128.08,361.27 145.00,364.71 160.58,369.04 C180.33,374.53 188.55,378.01 235.50,400.74 C275.40,420.06 289.52,425.07 321.00,431.07 C327.33,432.28 335.88,433.59 340.00,433.99 C349.92,434.96 380.35,435.17 391.85,434.35 C399.44,433.81 400.97,433.44 401.00,432.05 C401.00,432.07 401.00,432.08 401.00,432.10 C401.00,434.31 392.81,440.68 378.90,449.27 C350.52,466.82 321.89,477.64 291.00,482.50 C280.83,484.10 254.65,485.22 246.50,484.40 ZM 446.64 346.45 C446.73,343.04 446.37,342.37 444.66,341.85 C443.47,341.49 432.60,341.15 420.50,341.10 C395.01,340.98 384.91,339.98 369.00,335.99 C346.65,330.39 305.43,314.92 306.37,312.49 C306.64,311.78 305.58,311.76 302.76,312.47 C307.57,311.05 313.83,309.13 319.00,307.48 C351.78,297.03 377.05,292.35 405.82,291.42 C437.21,290.41 478.72,293.32 482.18,296.78 C483.55,298.15 482.49,303.57 477.39,321.20 C472.26,338.90 473.47,337.52 461.49,339.39 C447.73,341.53 446.88,341.68 446.64,346.45 ZM 296.34 314.30 C287.76,316.82 282.96,318.36 279.89,319.61 C283.62,318.01 288.23,316.54 296.34,314.30 ZM 457.47 358.06 C457.46,358.06 457.45,358.06 457.45,358.06 C456.43,358.03 453.97,356.98 451.69,355.63 C453.39,356.52 455.49,357.42 457.22,357.98 L 457.47 358.06 ZM 447.66 352.84 C446.63,351.81 446.50,350.79 446.57,348.52 C446.53,350.77 446.74,351.84 447.66,352.84 ZM 394.98 419.53 C395.49,421.62 396.00,423.30 396.56,424.66 C396.00,423.30 395.49,421.62 394.98,419.53 Z" fill="rgba(58,139,136,1)"/>
<path d="M 263.50 297.92 C236.57,286.60 200.90,276.58 171.00,271.94 C164.12,270.88 148.38,269.53 136.00,268.94 C123.62,268.35 112.04,267.66 110.25,267.39 L 107.00 266.91 L 107.00 259.07 C107.00,249.16 109.18,237.55 113.69,223.50 C130.30,171.64 171.85,133.10 225.79,119.51 C240.34,115.84 272.19,115.40 289.50,118.63 C319.23,124.17 349.29,140.90 371.78,164.43 C390.14,183.64 401.35,203.40 409.10,230.24 C411.99,240.22 415.00,258.69 415.00,266.39 L 415.00 270.72 L 402.75 271.40 C362.54,273.63 326.16,282.22 290.00,298.02 C283.66,300.79 280.46,302.20 277.24,302.25 C273.88,302.30 270.50,300.86 263.50,297.92 ZM 106.50 170.42 C101.37,167.75 78.57,149.81 75.33,145.90 C72.64,142.66 72.70,139.21 75.48,136.43 C80.38,131.53 84.17,133.38 107.66,152.10 C112.52,155.98 116.89,159.99 117.37,161.01 C118.78,164.00 117.20,167.91 113.72,170.03 C111.74,171.24 110.87,171.82 109.99,171.84 C109.15,171.86 108.31,171.37 106.50,170.42 ZM 169.84 111.25 C166.98,108.15 159.13,93.66 153.55,81.18 C151.04,75.57 150.02,72.07 150.42,70.44 C151.27,67.08 155.65,65.07 159.70,66.16 C162.43,66.90 163.75,68.53 168.55,77.10 C171.66,82.63 176.23,91.43 178.70,96.65 C182.71,105.11 183.06,106.43 182.03,108.94 C180.85,111.77 177.38,114.00 174.14,114.00 C173.17,114.00 171.23,112.76 169.84,111.25 ZM 405.57 169.43 C403.62,167.48 402.63,163.74 403.41,161.28 C403.96,159.55 424.51,142.67 433.42,136.62 C438.30,133.31 442.34,133.25 445.55,136.45 C450.62,141.53 448.02,145.34 430.43,158.69 C414.40,170.86 409.23,173.09 405.57,169.43 ZM 60.00 252.38 C53.67,251.10 46.07,249.54 43.11,248.92 C33.92,247.00 30.29,240.62 35.45,235.45 C38.76,232.15 41.90,232.27 62.44,236.47 C81.00,240.27 83.33,241.46 83.33,247.10 C83.33,251.32 79.17,255.06 74.69,254.86 C72.94,254.78 66.32,253.67 60.00,252.38 ZM 340.69 111.20 C339.21,109.65 338.00,107.44 338.00,106.28 C338.00,103.50 354.44,70.90 357.51,67.58 C360.54,64.31 364.36,64.26 367.55,67.45 C371.38,71.29 370.97,73.08 362.32,90.50 C350.70,113.88 346.81,117.59 340.69,111.20 ZM 254.86 90.09 C252.51,88.18 252.50,88.10 252.50,66.01 C252.50,45.22 252.62,43.75 254.44,42.42 C257.40,40.25 263.34,40.62 265.60,43.10 C267.29,44.97 267.54,47.20 267.85,63.17 C268.04,73.05 267.90,82.71 267.54,84.62 C266.26,91.46 259.92,94.19 254.86,90.09 ZM 441.23 254.33 C437.15,252.69 436.14,243.07 439.84,241.09 C441.93,239.97 469.56,234.29 477.01,233.46 C483.81,232.69 485.93,234.04 486.68,239.63 C487.60,246.50 484.08,248.09 457.06,253.08 C446.49,255.02 443.53,255.26 441.23,254.33 Z" fill="rgba(232,131,88,1)"/>
<path d="M 340.00 433.99 C335.88,433.59 327.33,432.28 321.00,431.07 C289.52,425.07 275.40,420.06 235.50,400.74 C188.55,378.01 180.33,374.53 160.58,369.04 C145.00,364.71 128.08,361.27 113.83,359.55 C97.56,357.59 64.51,355.66 59.88,356.40 L 56.21 356.99 L 52.10 348.59 C49.85,343.97 48.00,339.69 48.00,339.07 C48.00,336.75 53.64,336.00 70.82,336.02 C110.76,336.07 141.79,340.89 176.11,352.35 C193.88,358.29 205.70,363.42 240.97,380.49 C271.72,395.38 283.11,400.07 299.03,404.39 C322.97,410.89 343.23,413.67 373.77,414.66 L 394.04 415.32 L 394.61 417.91 C395.90,423.78 397.18,426.85 399.04,428.53 C400.12,429.51 401.00,431.07 401.00,432.01 C401.00,433.43 399.53,433.80 391.85,434.35 C380.35,435.17 349.92,434.96 340.00,433.99 ZM 399.00 361.87 C385.95,360.61 362.60,355.72 346.19,350.81 C332.82,346.81 328.33,345.09 291.74,329.93 L 273.97 322.57 L 277.24 320.83 C280.37,319.16 285.78,317.36 300.17,313.18 C304.93,311.80 306.71,311.60 306.37,312.49 C305.43,314.92 346.65,330.39 369.00,335.99 C384.91,339.98 395.01,340.98 420.50,341.10 C432.60,341.15 443.47,341.49 444.66,341.85 C446.52,342.41 446.79,343.16 446.61,347.40 C446.41,352.20 446.51,352.36 450.90,355.15 C453.37,356.72 456.32,358.03 457.45,358.06 C462.75,358.23 454.79,359.81 443.50,360.84 C425.05,362.51 409.45,362.88 399.00,361.87 Z" fill="rgba(233,235,230,1)"/>
</g>
</svg>